<svg xmlns="http://www.w3.org/2000/svg" width="1440" height="900"><path d="M779,448L756,518L837,465Z" fill="#f1f6e7" stroke="#f1f6e7" stroke-width="1.51"/><path d="M756,518L881,582L837,465Z" fill="#ebf5d9" stroke="#ebf5d9" stroke-width="1.51"/><path d="M837,465L822,361L779,448Z" fill="#f3f4ea" stroke="#f3f4ea" stroke-width="1.51"/><path d="M972,435L822,361L837,465Z" fill="#eef1df" stroke="#eef1df" stroke-width="1.51"/><path d="M881,582L972,435L837,465Z" fill="#e6f4d1" stroke="#e6f4d1" stroke-width="1.51"/><path d="M779,448L610,457L756,518Z" fill="#f5f6f1" stroke="#f5f6f1" stroke-width="1.51"/><path d="M756,518L862,696L881,582Z" fill="#daefbc" stroke="#daefbc" stroke-width="1.51"/><path d="M620,342L610,457L779,448Z" fill="#f9eff4" stroke="#f9eff4" stroke-width="1.51"/><path d="M610,457L605,570L756,518Z" fill="#f3f2e8" stroke="#f3f2e8" stroke-width="1.51"/><path d="M720,727L862,696L756,518Z" fill="#d0e8b0" stroke="#d0e8b0" stroke-width="1.51"/><path d="M881,582L1044,599L972,435Z" fill="#d6eeb6" stroke="#d6eeb6" stroke-width="1.51"/><path d="M822,361L620,342L779,448Z" fill="#f9eff1" stroke="#f9eff1" stroke-width="1.51"/><path d="M972,435L905,298L822,361Z" fill="#ede9d7" stroke="#ede9d7" stroke-width="1.51"/><path d="M794,251L620,342L822,361Z" fill="#f7e2eb" stroke="#f7e2eb" stroke-width="1.51"/><path d="M905,298L794,251L822,361Z" fill="#f0dedc" stroke="#f0dedc" stroke-width="1.51"/><path d="M605,570L701,716L756,518Z" fill="#e1edc9" stroke="#e1edc9" stroke-width="1.51"/><path d="M701,716L720,727L756,518Z" fill="#d1e7b4" stroke="#d1e7b4" stroke-width="1.51"/><path d="M862,696L954,687L881,582Z" fill="#c2e499" stroke="#c2e499" stroke-width="1.51"/><path d="M853,825L954,687L862,696Z" fill="#abd280" stroke="#abd280" stroke-width="1.51"/><path d="M954,687L1044,599L881,582Z" fill="#c2e696" stroke="#c2e696" stroke-width="1.51"/><path d="M610,457L520,489L605,570Z" fill="#f5ebe7" stroke="#f5ebe7" stroke-width="1.51"/><path d="M605,570L535,657L701,716Z" fill="#d7e1b5" stroke="#d7e1b5" stroke-width="1.51"/><path d="M539,364L520,489L610,457Z" fill="#fae7f1" stroke="#fae7f1" stroke-width="1.51"/><path d="M972,435L1051,319L905,298Z" fill="#e1e1c2" stroke="#e1e1c2" stroke-width="1.51"/><path d="M1044,599L1079,456L972,435Z" fill="#d0e9af" stroke="#d0e9af" stroke-width="1.51"/><path d="M620,342L539,364L610,457Z" fill="#fce5f1" stroke="#fce5f1" stroke-width="1.51"/><path d="M613,253L539,364L620,342Z" fill="#fad8eb" stroke="#fad8eb" stroke-width="1.51"/><path d="M520,489L503,524L605,570Z" fill="#f2e6e0" stroke="#f2e6e0" stroke-width="1.51"/><path d="M443,444L503,524L520,489Z" fill="#f4dfe5" stroke="#f4dfe5" stroke-width="1.51"/><path d="M794,251L613,253L620,342Z" fill="#f7d6e9" stroke="#f7d6e9" stroke-width="1.51"/><path d="M1079,456L1051,319L972,435Z" fill="#d6e3b7" stroke="#d6e3b7" stroke-width="1.51"/><path d="M905,298L924,201L794,251Z" fill="#eacfce" stroke="#eacfce" stroke-width="1.51"/><path d="M503,524L535,657L605,570Z" fill="#e7e2cc" stroke="#e7e2cc" stroke-width="1.51"/><path d="M725,901L795,822L720,727Z" fill="#a1c288" stroke="#a1c288" stroke-width="1.51"/><path d="M1051,319L924,201L905,298Z" fill="#dfd1be" stroke="#dfd1be" stroke-width="1.51"/><path d="M794,251L753,114L613,253Z" fill="#f0c1d9" stroke="#f0c1d9" stroke-width="1.51"/><path d="M720,727L795,822L862,696Z" fill="#b1d38e" stroke="#b1d38e" stroke-width="1.51"/><path d="M617,816L720,727L701,716Z" fill="#b6cf96" stroke="#b6cf96" stroke-width="1.51"/><path d="M795,822L853,825L862,696Z" fill="#a5ca82" stroke="#a5ca82" stroke-width="1.51"/><path d="M1096,667L1115,621L1044,599Z" fill="#aad775" stroke="#aad775" stroke-width="1.51"/><path d="M1044,599L1115,621L1079,456Z" fill="#bde093" stroke="#bde093" stroke-width="1.51"/><path d="M1187,384L1109,296L1051,319Z" fill="#c8cd9f" stroke="#c8cd9f" stroke-width="1.51"/><path d="M1096,667L1044,599L954,687Z" fill="#add979" stroke="#add979" stroke-width="1.51"/><path d="M1084,845L1096,667L954,687Z" fill="#91c759" stroke="#91c759" stroke-width="1.51"/><path d="M453,280L443,444L539,364Z" fill="#f9d3e8" stroke="#f9d3e8" stroke-width="1.51"/><path d="M539,364L443,444L520,489Z" fill="#f8dfec" stroke="#f8dfec" stroke-width="1.51"/><path d="M385,591L434,689L535,657Z" fill="#d4cdad" stroke="#d4cdad" stroke-width="1.51"/><path d="M1051,319L1061,169L924,201Z" fill="#d4bfa7" stroke="#d4bfa7" stroke-width="1.51"/><path d="M1187,384L1051,319L1079,456Z" fill="#c9d8a5" stroke="#c9d8a5" stroke-width="1.51"/><path d="M535,657L617,816L701,716Z" fill="#bed099" stroke="#bed099" stroke-width="1.51"/><path d="M939,925L993,852L853,825Z" fill="#83af64" stroke="#83af64" stroke-width="1.51"/><path d="M924,201L753,114L794,251Z" fill="#e9bbc7" stroke="#e9bbc7" stroke-width="1.51"/><path d="M700,92L571,178L613,253Z" fill="#eeaece" stroke="#eeaece" stroke-width="1.51"/><path d="M480,231L453,280L539,364Z" fill="#f5c4e1" stroke="#f5c4e1" stroke-width="1.51"/><path d="M1240,441L1187,384L1079,456Z" fill="#bcd49a" stroke="#bcd49a" stroke-width="1.51"/><path d="M480,231L539,364L613,253Z" fill="#f7cae3" stroke="#f7cae3" stroke-width="1.51"/><path d="M535,657L530,798L617,816Z" fill="#b7c592" stroke="#b7c592" stroke-width="1.51"/><path d="M434,689L530,798L535,657Z" fill="#c1c696" stroke="#c1c696" stroke-width="1.51"/><path d="M853,825L993,852L954,687Z" fill="#95c36b" stroke="#95c36b" stroke-width="1.51"/><path d="M725,901L853,825L795,822Z" fill="#97b980" stroke="#97b980" stroke-width="1.51"/><path d="M571,178L480,231L613,253Z" fill="#f2b7d7" stroke="#f2b7d7" stroke-width="1.51"/><path d="M571,178L556,149L480,231Z" fill="#eea8cd" stroke="#eea8cd" stroke-width="1.51"/><path d="M753,114L700,92L613,253Z" fill="#ebabc9" stroke="#ebabc9" stroke-width="1.51"/><path d="M385,591L535,657L503,524Z" fill="#e3d7c4" stroke="#e3d7c4" stroke-width="1.51"/><path d="M617,816L725,901L720,727Z" fill="#a5c18b" stroke="#a5c18b" stroke-width="1.51"/><path d="M704,922L725,901L617,816Z" fill="#95ae85" stroke="#95ae85" stroke-width="1.51"/><path d="M1109,296L1061,169L1051,319Z" fill="#cbc2a0" stroke="#cbc2a0" stroke-width="1.51"/><path d="M924,201L902,59L753,114Z" fill="#e1a3b0" stroke="#e1a3b0" stroke-width="1.51"/><path d="M753,114L730,28L700,92Z" fill="#e094b4" stroke="#e094b4" stroke-width="1.51"/><path d="M1142,244L1061,169L1109,296Z" fill="#c3b693" stroke="#c3b693" stroke-width="1.51"/><path d="M700,92L556,149L571,178Z" fill="#eb9fc4" stroke="#eb9fc4" stroke-width="1.51"/><path d="M443,444L385,591L503,524Z" fill="#efd7db" stroke="#efd7db" stroke-width="1.51"/><path d="M308,620L385,591L285,466Z" fill="#e4bebd" stroke="#e4bebd" stroke-width="1.51"/><path d="M1182,242L1142,244L1109,296Z" fill="#beb990" stroke="#beb990" stroke-width="1.51"/><path d="M1115,621L1215,618L1079,456Z" fill="#b1d883" stroke="#b1d883" stroke-width="1.51"/><path d="M1096,667L1215,618L1115,621Z" fill="#9ccf64" stroke="#9ccf64" stroke-width="1.51"/><path d="M1238,644L1215,618L1096,667Z" fill="#92c75c" stroke="#92c75c" stroke-width="1.51"/><path d="M786,1015L939,925L853,825Z" fill="#87aa72" stroke="#87aa72" stroke-width="1.51"/><path d="M553,967L704,922L617,816Z" fill="#92a581" stroke="#92a581" stroke-width="1.51"/><path d="M1187,384L1182,242L1109,296Z" fill="#bec293" stroke="#bec293" stroke-width="1.51"/><path d="M1215,618L1240,441L1079,456Z" fill="#b4d58e" stroke="#b4d58e" stroke-width="1.51"/><path d="M951,61L902,59L924,201Z" fill="#d69a9c" stroke="#d69a9c" stroke-width="1.51"/><path d="M993,852L1084,845L954,687Z" fill="#87bc57" stroke="#87bc57" stroke-width="1.51"/><path d="M984,927L1084,845L993,852Z" fill="#72a64d" stroke="#72a64d" stroke-width="1.51"/><path d="M786,1015L853,825L725,901Z" fill="#8bab7b" stroke="#8bab7b" stroke-width="1.51"/><path d="M1075,89L951,61L1061,169Z" fill="#c69383" stroke="#c69383" stroke-width="1.51"/><path d="M1061,169L951,61L924,201Z" fill="#d2a499" stroke="#d2a499" stroke-width="1.51"/><path d="M1142,244L1190,104L1061,169Z" fill="#ba9e7f" stroke="#ba9e7f" stroke-width="1.51"/><path d="M1386,371L1182,242L1187,384Z" fill="#afbb8b" stroke="#afbb8b" stroke-width="1.51"/><path d="M530,798L553,967L617,816Z" fill="#9cab84" stroke="#9cab84" stroke-width="1.51"/><path d="M434,689L450,799L530,798Z" fill="#b3b78b" stroke="#b3b78b" stroke-width="1.51"/><path d="M260,783L450,799L434,689Z" fill="#b1a982" stroke="#b1a982" stroke-width="1.51"/><path d="M1215,618L1373,519L1240,441Z" fill="#a0c67f" stroke="#a0c67f" stroke-width="1.51"/><path d="M1220,775L1238,644L1096,667Z" fill="#82bc48" stroke="#82bc48" stroke-width="1.51"/><path d="M934,-63L730,28L902,59Z" fill="#c38a92" stroke="#c38a92" stroke-width="1.51"/><path d="M902,59L730,28L753,114Z" fill="#da93a9" stroke="#da93a9" stroke-width="1.51"/><path d="M700,92L658,-31L556,149Z" fill="#df8cb0" stroke="#df8cb0" stroke-width="1.51"/><path d="M939,925L984,927L993,852Z" fill="#75a357" stroke="#75a357" stroke-width="1.51"/><path d="M1044,1000L984,927L939,925Z" fill="#72a253" stroke="#72a253" stroke-width="1.51"/><path d="M1190,104L1075,89L1061,169Z" fill="#b98f75" stroke="#b98f75" stroke-width="1.51"/><path d="M385,591L306,648L434,689Z" fill="#d1bfa4" stroke="#d1bfa4" stroke-width="1.51"/><path d="M285,466L385,591L443,444Z" fill="#eecad4" stroke="#eecad4" stroke-width="1.51"/><path d="M1084,845L1220,775L1096,667Z" fill="#78b43e" stroke="#78b43e" stroke-width="1.51"/><path d="M1130,946L1220,775L1084,845Z" fill="#5e9b31" stroke="#5e9b31" stroke-width="1.51"/><path d="M311,286L285,466L443,444Z" fill="#f2bed9" stroke="#f2bed9" stroke-width="1.51"/><path d="M311,286L443,444L453,280Z" fill="#f4bfdd" stroke="#f4bfdd" stroke-width="1.51"/><path d="M308,620L306,648L385,591Z" fill="#d5b9a7" stroke="#d5b9a7" stroke-width="1.51"/><path d="M256,674L306,648L308,620Z" fill="#cbad96" stroke="#cbad96" stroke-width="1.51"/><path d="M704,922L786,1015L725,901Z" fill="#8eac81" stroke="#8eac81" stroke-width="1.51"/><path d="M684,1082L786,1015L704,922Z" fill="#8fac83" stroke="#8fac83" stroke-width="1.51"/><path d="M382,145L311,286L453,280Z" fill="#eba0ca" stroke="#eba0ca" stroke-width="1.51"/><path d="M382,145L453,280L480,231Z" fill="#eda5ce" stroke="#eda5ce" stroke-width="1.51"/><path d="M382,145L480,231L556,149Z" fill="#ea9bc5" stroke="#ea9bc5" stroke-width="1.51"/><path d="M449,935L553,967L530,798Z" fill="#92997c" stroke="#92997c" stroke-width="1.51"/><path d="M449,935L530,798L450,799Z" fill="#9ea37f" stroke="#9ea37f" stroke-width="1.51"/><path d="M1075,89L950,-24L951,61Z" fill="#bb887b" stroke="#bb887b" stroke-width="1.51"/><path d="M951,61L950,-24L902,59Z" fill="#c08a86" stroke="#c08a86" stroke-width="1.51"/><path d="M477,5L382,145L556,149Z" fill="#e17eb0" stroke="#e17eb0" stroke-width="1.51"/><path d="M730,28L658,-31L700,92Z" fill="#d28ba8" stroke="#d28ba8" stroke-width="1.51"/><path d="M662,-98L658,-31L730,28Z" fill="#c885a0" stroke="#c885a0" stroke-width="1.51"/><path d="M1182,242L1190,104L1142,244Z" fill="#b4a17d" stroke="#b4a17d" stroke-width="1.51"/><path d="M1075,89L1152,-12L950,-24Z" fill="#a87e66" stroke="#a87e66" stroke-width="1.51"/><path d="M1303,143L1190,104L1182,242Z" fill="#a98f70" stroke="#a98f70" stroke-width="1.51"/><path d="M786,1015L859,1045L939,925Z" fill="#86aa72" stroke="#86aa72" stroke-width="1.51"/><path d="M984,927L1130,946L1084,845Z" fill="#649941" stroke="#649941" stroke-width="1.51"/><path d="M684,1082L859,1045L786,1015Z" fill="#8cab7d" stroke="#8cab7d" stroke-width="1.51"/><path d="M1044,1000L1130,946L984,927Z" fill="#679b44" stroke="#679b44" stroke-width="1.51"/><path d="M297,873L449,935L450,799Z" fill="#959076" stroke="#959076" stroke-width="1.51"/><path d="M859,1045L1044,1000L939,925Z" fill="#79a45d" stroke="#79a45d" stroke-width="1.51"/><path d="M306,648L254,744L434,689Z" fill="#c0ac8b" stroke="#c0ac8b" stroke-width="1.51"/><path d="M233,587L256,674L308,620Z" fill="#d1ab99" stroke="#d1ab99" stroke-width="1.51"/><path d="M184,458L233,587L285,466Z" fill="#e6abbd" stroke="#e6abbd" stroke-width="1.51"/><path d="M285,466L233,587L308,620Z" fill="#e1b3b6" stroke="#e1b3b6" stroke-width="1.51"/><path d="M950,-24L934,-63L902,59Z" fill="#b78580" stroke="#b78580" stroke-width="1.51"/><path d="M1128,-88L934,-63L950,-24Z" fill="#ac826e" stroke="#ac826e" stroke-width="1.51"/><path d="M311,286L209,315L285,466Z" fill="#eda6ca" stroke="#eda6ca" stroke-width="1.51"/><path d="M249,233L266,273L311,286Z" fill="#e792c0" stroke="#e792c0" stroke-width="1.51"/><path d="M1238,644L1373,519L1215,618Z" fill="#90c066" stroke="#90c066" stroke-width="1.51"/><path d="M1240,441L1386,371L1187,384Z" fill="#acc28d" stroke="#acc28d" stroke-width="1.51"/><path d="M1403,697L1373,519L1238,644Z" fill="#80b357" stroke="#80b357" stroke-width="1.51"/><path d="M1350,793L1238,644L1220,775Z" fill="#66a731" stroke="#66a731" stroke-width="1.51"/><path d="M549,-58L477,5L556,149Z" fill="#d07aa2" stroke="#d07aa2" stroke-width="1.51"/><path d="M382,145L249,233L311,286Z" fill="#e58cbc" stroke="#e58cbc" stroke-width="1.51"/><path d="M1373,519L1392,469L1240,441Z" fill="#9cbd85" stroke="#9cbd85" stroke-width="1.51"/><path d="M121,700L254,744L256,674Z" fill="#b69174" stroke="#b69174" stroke-width="1.51"/><path d="M256,674L254,744L306,648Z" fill="#bfa184" stroke="#bfa184" stroke-width="1.51"/><path d="M553,967L684,1082L704,922Z" fill="#91a682" stroke="#91a682" stroke-width="1.51"/><path d="M511,1072L684,1082L553,967Z" fill="#93a280" stroke="#93a280" stroke-width="1.51"/><path d="M1392,469L1386,371L1240,441Z" fill="#a0ba89" stroke="#a0ba89" stroke-width="1.51"/><path d="M658,-31L549,-58L556,149Z" fill="#d080a2" stroke="#d080a2" stroke-width="1.51"/><path d="M662,-98L549,-58L658,-31Z" fill="#c9819e" stroke="#c9819e" stroke-width="1.51"/><path d="M820,-160L662,-98L730,28Z" fill="#c7889e" stroke="#c7889e" stroke-width="1.51"/><path d="M261,91L249,233L382,145Z" fill="#dc70a9" stroke="#dc70a9" stroke-width="1.51"/><path d="M209,315L184,458L285,466Z" fill="#eba5c6" stroke="#eba5c6" stroke-width="1.51"/><path d="M254,744L260,783L434,689Z" fill="#b3a07c" stroke="#b3a07c" stroke-width="1.51"/><path d="M209,315L311,286L266,273Z" fill="#e896c2" stroke="#e896c2" stroke-width="1.51"/><path d="M233,587L121,700L256,674Z" fill="#c59885" stroke="#c59885" stroke-width="1.51"/><path d="M254,744L94,780L260,783Z" fill="#a58166" stroke="#a58166" stroke-width="1.51"/><path d="M249,233L209,315L266,273Z" fill="#e68dbc" stroke="#e68dbc" stroke-width="1.51"/><path d="M1190,104L1152,-12L1075,89Z" fill="#a77c60" stroke="#a77c60" stroke-width="1.51"/><path d="M1330,176L1303,143L1182,242Z" fill="#a39070" stroke="#a39070" stroke-width="1.51"/><path d="M1254,2L1152,-12L1190,104Z" fill="#947052" stroke="#947052" stroke-width="1.51"/><path d="M1386,371L1330,176L1182,242Z" fill="#a4a47e" stroke="#a4a47e" stroke-width="1.51"/><path d="M260,783L297,873L450,799Z" fill="#9f9271" stroke="#9f9271" stroke-width="1.51"/><path d="M449,935L511,1072L553,967Z" fill="#91987c" stroke="#91987c" stroke-width="1.51"/><path d="M1306,898L1350,793L1220,775Z" fill="#4b8f21" stroke="#4b8f21" stroke-width="1.51"/><path d="M1373,519L1440,537L1392,469Z" fill="#8fb17a" stroke="#8fb17a" stroke-width="1.51"/><path d="M952,-168L926,-125L934,-63Z" fill="#b6857d" stroke="#b6857d" stroke-width="1.51"/><path d="M934,-63L820,-160L730,28Z" fill="#c28993" stroke="#c28993" stroke-width="1.51"/><path d="M1350,793L1403,697L1238,644Z" fill="#65a334" stroke="#65a334" stroke-width="1.51"/><path d="M1272,1001L1282,916L1130,946Z" fill="#468424" stroke="#468424" stroke-width="1.51"/><path d="M1130,946L1282,916L1220,775Z" fill="#4d8c27" stroke="#4d8c27" stroke-width="1.51"/><path d="M1403,697L1440,537L1373,519Z" fill="#80ab62" stroke="#80ab62" stroke-width="1.51"/><path d="M1392,469L1478,382L1386,371Z" fill="#95ab83" stroke="#95ab83" stroke-width="1.51"/><path d="M1386,371L1437,260L1330,176Z" fill="#98977a" stroke="#98977a" stroke-width="1.51"/><path d="M395,1004L511,1072L449,935Z" fill="#909178" stroke="#909178" stroke-width="1.51"/><path d="M1044,1000L1096,1066L1130,946Z" fill="#5f973b" stroke="#5f973b" stroke-width="1.51"/><path d="M859,1045L1096,1066L1044,1000Z" fill="#70a150" stroke="#70a150" stroke-width="1.51"/><path d="M684,1082L1096,1066L859,1045Z" fill="#84a96d" stroke="#84a96d" stroke-width="1.51"/><path d="M1282,916L1306,898L1220,775Z" fill="#468821" stroke="#468821" stroke-width="1.51"/><path d="M1444,848L1488,688L1403,697Z" fill="#4c8928" stroke="#4c8928" stroke-width="1.51"/><path d="M1272,1001L1306,898L1282,916Z" fill="#3b7c1e" stroke="#3b7c1e" stroke-width="1.51"/><path d="M354,972L395,1004L449,935Z" fill="#8e8873" stroke="#8e8873" stroke-width="1.51"/><path d="M297,873L354,972L449,935Z" fill="#8d826e" stroke="#8d826e" stroke-width="1.51"/><path d="M926,-125L820,-160L934,-63Z" fill="#bc8788" stroke="#bc8788" stroke-width="1.51"/><path d="M396,-89L477,5L549,-58Z" fill="#c46d96" stroke="#c46d96" stroke-width="1.51"/><path d="M1540,466L1459,485L1548,546Z" fill="#8aab7a" stroke="#8aab7a" stroke-width="1.51"/><path d="M1440,537L1459,485L1392,469Z" fill="#8cad7b" stroke="#8cad7b" stroke-width="1.51"/><path d="M926,-125L952,-168L820,-160Z" fill="#bb8786" stroke="#bb8786" stroke-width="1.51"/><path d="M1152,-12L1128,-88L950,-24Z" fill="#9f795f" stroke="#9f795f" stroke-width="1.51"/><path d="M1244,-115L1128,-88L1152,-12Z" fill="#8e6e4c" stroke="#8e6e4c" stroke-width="1.51"/><path d="M1254,2L1190,104L1303,143Z" fill="#9c7259" stroke="#9c7259" stroke-width="1.51"/><path d="M70,387L128,505L184,458Z" fill="#e194b5" stroke="#e194b5" stroke-width="1.51"/><path d="M184,458L128,505L233,587Z" fill="#e29fb2" stroke="#e29fb2" stroke-width="1.51"/><path d="M260,783L176,952L297,873Z" fill="#8e7260" stroke="#8e7260" stroke-width="1.51"/><path d="M249,233L118,269L209,315Z" fill="#e280b3" stroke="#e280b3" stroke-width="1.51"/><path d="M209,315L70,387L184,458Z" fill="#e690b7" stroke="#e690b7" stroke-width="1.51"/><path d="M363,-45L261,91L382,145Z" fill="#ce5995" stroke="#ce5995" stroke-width="1.51"/><path d="M363,-45L382,145L477,5Z" fill="#cb6698" stroke="#cb6698" stroke-width="1.51"/><path d="M1404,-12L1254,2L1303,143Z" fill="#856149" stroke="#856149" stroke-width="1.51"/><path d="M1128,-88L952,-168L934,-63Z" fill="#ac816e" stroke="#ac816e" stroke-width="1.51"/><path d="M1478,382L1437,260L1386,371Z" fill="#939e7e" stroke="#939e7e" stroke-width="1.51"/><path d="M1330,176L1404,-12L1303,143Z" fill="#906856" stroke="#906856" stroke-width="1.51"/><path d="M1459,485L1478,382L1392,469Z" fill="#8fab84" stroke="#8fab84" stroke-width="1.51"/><path d="M507,-147L549,-58L662,-98Z" fill="#c97c9d" stroke="#c97c9d" stroke-width="1.51"/><path d="M396,-89L363,-45L477,5Z" fill="#c06390" stroke="#c06390" stroke-width="1.51"/><path d="M1444,848L1403,697L1350,793Z" fill="#488823" stroke="#488823" stroke-width="1.51"/><path d="M1096,1066L1272,1001L1130,946Z" fill="#508d2b" stroke="#508d2b" stroke-width="1.51"/><path d="M128,505L102,583L233,587Z" fill="#da97a1" stroke="#da97a1" stroke-width="1.51"/><path d="M297,873L176,952L354,972Z" fill="#887162" stroke="#887162" stroke-width="1.51"/><path d="M2,521L102,583L128,505Z" fill="#d0909c" stroke="#d0909c" stroke-width="1.51"/><path d="M820,-160L507,-147L662,-98Z" fill="#c9849f" stroke="#c9849f" stroke-width="1.51"/><path d="M211,-167L507,-147L820,-160Z" fill="#c67399" stroke="#c67399" stroke-width="1.51"/><path d="M507,-147L396,-89L549,-58Z" fill="#c46f97" stroke="#c46f97" stroke-width="1.51"/><path d="M102,583L121,700L233,587Z" fill="#cb9288" stroke="#cb9288" stroke-width="1.51"/><path d="M182,96L118,269L249,233Z" fill="#d863a0" stroke="#d863a0" stroke-width="1.51"/><path d="M182,96L249,233L261,91Z" fill="#d55799" stroke="#d55799" stroke-width="1.51"/><path d="M182,96L261,91L210,35Z" fill="#c73985" stroke="#c73985" stroke-width="1.51"/><path d="M1403,697L1488,688L1440,537Z" fill="#6b9f4a" stroke="#6b9f4a" stroke-width="1.51"/><path d="M1459,485L1540,466L1478,382Z" fill="#8fab83" stroke="#8fab83" stroke-width="1.51"/><path d="M1444,848L1350,793L1306,898Z" fill="#3c7d1d" stroke="#3c7d1d" stroke-width="1.51"/><path d="M210,35L261,91L363,-45Z" fill="#bd4684" stroke="#bd4684" stroke-width="1.51"/><path d="M118,269L70,387L209,315Z" fill="#e080ae" stroke="#e080ae" stroke-width="1.51"/><path d="M-85,650L94,780L121,700Z" fill="#9d7759" stroke="#9d7759" stroke-width="1.51"/><path d="M-47,487L70,387L-42,325Z" fill="#c9829f" stroke="#c9829f" stroke-width="1.51"/><path d="M1438,942L1444,848L1306,898Z" fill="#2e6c1a" stroke="#2e6c1a" stroke-width="1.51"/><path d="M1548,546L1459,485L1440,537Z" fill="#88aa75" stroke="#88aa75" stroke-width="1.51"/><path d="M1563,225L1487,153L1437,260Z" fill="#8b7d6b" stroke="#8b7d6b" stroke-width="1.51"/><path d="M295,-107L210,35L363,-45Z" fill="#b6467e" stroke="#b6467e" stroke-width="1.51"/><path d="M1488,688L1548,546L1440,537Z" fill="#79a55e" stroke="#79a55e" stroke-width="1.51"/><path d="M1578,672L1548,546L1488,688Z" fill="#6da04c" stroke="#6da04c" stroke-width="1.51"/><path d="M1369,-101L1244,-115L1254,2Z" fill="#7c6041" stroke="#7c6041" stroke-width="1.51"/><path d="M1254,2L1244,-115L1152,-12Z" fill="#886948" stroke="#886948" stroke-width="1.51"/><path d="M1128,-88L1244,-115L952,-168Z" fill="#9a7658" stroke="#9a7658" stroke-width="1.51"/><path d="M-85,650L121,700L102,583Z" fill="#b0836f" stroke="#b0836f" stroke-width="1.51"/><path d="M121,700L94,780L254,744Z" fill="#a97d63" stroke="#a97d63" stroke-width="1.51"/><path d="M354,972L210,1043L395,1004Z" fill="#8b7968" stroke="#8b7968" stroke-width="1.51"/><path d="M1437,260L1487,153L1330,176Z" fill="#8e7c68" stroke="#8e7c68" stroke-width="1.51"/><path d="M1563,225L1437,260L1478,382Z" fill="#909379" stroke="#909379" stroke-width="1.51"/><path d="M94,780L176,952L260,783Z" fill="#916c58" stroke="#916c58" stroke-width="1.51"/><path d="M395,1004L210,1043L511,1072Z" fill="#8d836f" stroke="#8d836f" stroke-width="1.51"/><path d="M1096,1066L1342,1046L1272,1001Z" fill="#448323" stroke="#448323" stroke-width="1.51"/><path d="M1272,1001L1342,1046L1306,898Z" fill="#38791d" stroke="#38791d" stroke-width="1.51"/><path d="M210,35L137,83L182,96Z" fill="#c2297e" stroke="#c2297e" stroke-width="1.51"/><path d="M182,96L137,83L118,269Z" fill="#ce438d" stroke="#ce438d" stroke-width="1.51"/><path d="M57,15L137,83L210,35Z" fill="#b51470" stroke="#b51470" stroke-width="1.51"/><path d="M507,-147L295,-107L396,-89Z" fill="#bf608e" stroke="#bf608e" stroke-width="1.51"/><path d="M396,-89L295,-107L363,-45Z" fill="#bb5587" stroke="#bb5587" stroke-width="1.51"/><path d="M1342,1046L1438,942L1306,898Z" fill="#32701b" stroke="#32701b" stroke-width="1.51"/><path d="M1625,821L1578,672L1488,688Z" fill="#518d2b" stroke="#518d2b" stroke-width="1.51"/><path d="M1487,153L1404,-12L1330,176Z" fill="#875f53" stroke="#875f53" stroke-width="1.51"/><path d="M70,387L2,521L128,505Z" fill="#d38fa7" stroke="#d38fa7" stroke-width="1.51"/><path d="M-47,487L2,521L70,387Z" fill="#c8899e" stroke="#c8899e" stroke-width="1.51"/><path d="M1548,546L1618,378L1540,466Z" fill="#8eac81" stroke="#8eac81" stroke-width="1.51"/><path d="M1618,378L1563,225L1478,382Z" fill="#929b7d" stroke="#929b7d" stroke-width="1.51"/><path d="M1625,821L1488,688L1444,848Z" fill="#418021" stroke="#418021" stroke-width="1.51"/><path d="M68,1055L210,1043L176,952Z" fill="#81574e" stroke="#81574e" stroke-width="1.51"/><path d="M176,952L210,1043L354,972Z" fill="#876b5d" stroke="#876b5d" stroke-width="1.51"/><path d="M1618,378L1478,382L1540,466Z" fill="#91a782" stroke="#91a782" stroke-width="1.51"/><path d="M1487,153L1522,26L1404,-12Z" fill="#775145" stroke="#775145" stroke-width="1.51"/><path d="M1466,-102L1369,-101L1404,-12Z" fill="#6a4d3a" stroke="#6a4d3a" stroke-width="1.51"/><path d="M1404,-12L1369,-101L1254,2Z" fill="#74583e" stroke="#74583e" stroke-width="1.51"/><path d="M1244,-115L1466,-102L952,-168Z" fill="#876948" stroke="#876948" stroke-width="1.51"/><path d="M1614,911L1625,821L1444,848Z" fill="#306e1b" stroke="#306e1b" stroke-width="1.51"/><path d="M1342,1046L1443,1008L1438,942Z" fill="#2c691a" stroke="#2c691a" stroke-width="1.51"/><path d="M1578,672L1618,378L1548,546Z" fill="#87aa73" stroke="#87aa73" stroke-width="1.51"/><path d="M94,780L62,894L176,952Z" fill="#80584b" stroke="#80584b" stroke-width="1.51"/><path d="M-44,829L62,894L94,780Z" fill="#7c5c44" stroke="#7c5c44" stroke-width="1.51"/><path d="M-17,257L70,387L118,269Z" fill="#d074a0" stroke="#d074a0" stroke-width="1.51"/><path d="M2,521L-85,650L102,583Z" fill="#b7857f" stroke="#b7857f" stroke-width="1.51"/><path d="M5,161L118,269L137,83Z" fill="#c6488a" stroke="#c6488a" stroke-width="1.51"/><path d="M5,161L-17,257L118,269Z" fill="#c35b8f" stroke="#c35b8f" stroke-width="1.51"/><path d="M-17,257L-42,325L70,387Z" fill="#c67499" stroke="#c67499" stroke-width="1.51"/><path d="M57,15L5,161L137,83Z" fill="#b51470" stroke="#b51470" stroke-width="1.51"/><path d="M-17,257L-96,203L-42,325Z" fill="#c06491" stroke="#c06491" stroke-width="1.51"/><path d="M1565,52L1487,153L1563,225Z" fill="#86675a" stroke="#86675a" stroke-width="1.51"/><path d="M1565,52L1522,26L1487,153Z" fill="#7d534a" stroke="#7d534a" stroke-width="1.51"/><path d="M93,-97L57,15L210,35Z" fill="#a50c64" stroke="#a50c64" stroke-width="1.51"/><path d="M295,-107L211,-167L210,35Z" fill="#b23776" stroke="#b23776" stroke-width="1.51"/><path d="M507,-147L211,-167L295,-107Z" fill="#ba5285" stroke="#ba5285" stroke-width="1.51"/><path d="M952,-168L211,-167L820,-160Z" fill="#c9849f" stroke="#c9849f" stroke-width="1.51"/><path d="M1522,26L1466,-102L1404,-12Z" fill="#674939" stroke="#674939" stroke-width="1.51"/><path d="M1618,378L1565,52L1563,225Z" fill="#8c7f6c" stroke="#8c7f6c" stroke-width="1.51"/><path d="M1578,672L1625,821L1618,378Z" fill="#70a150" stroke="#70a150" stroke-width="1.51"/><path d="M1614,911L1444,848L1438,942Z" fill="#276419" stroke="#276419" stroke-width="1.51"/><path d="M1565,52L1566,41L1522,26Z" fill="#724e42" stroke="#724e42" stroke-width="1.51"/><path d="M1618,378L1566,41L1565,52Z" fill="#876c5e" stroke="#876c5e" stroke-width="1.51"/><path d="M1541,-77L1466,-102L1522,26Z" fill="#674939" stroke="#674939" stroke-width="1.51"/><path d="M1369,-101L1466,-102L1244,-115Z" fill="#72553d" stroke="#72553d" stroke-width="1.51"/><path d="M-133,609L2,521L-47,487Z" fill="#c0888f" stroke="#c0888f" stroke-width="1.51"/><path d="M-133,609L-85,650L2,521Z" fill="#b4847b" stroke="#b4847b" stroke-width="1.51"/><path d="M-146,359L-101,487L-47,487Z" fill="#c888a0" stroke="#c888a0" stroke-width="1.51"/><path d="M-146,359L-47,487L-42,325Z" fill="#c9819e" stroke="#c9819e" stroke-width="1.51"/><path d="M-85,650L-44,829L94,780Z" fill="#896a49" stroke="#896a49" stroke-width="1.51"/><path d="M62,894L68,1055L176,952Z" fill="#795247" stroke="#795247" stroke-width="1.51"/><path d="M1443,1008L1614,911L1438,942Z" fill="#276419" stroke="#276419" stroke-width="1.51"/><path d="M211,-167L93,-97L210,35Z" fill="#ac1e6b" stroke="#ac1e6b" stroke-width="1.51"/><path d="M-152,159L-96,203L5,161Z" fill="#b6437d" stroke="#b6437d" stroke-width="1.51"/><path d="M-68,1031L68,1055L62,894Z" fill="#6a4b3c" stroke="#6a4b3c" stroke-width="1.51"/><path d="M210,1043L68,1055L511,1072Z" fill="#886e5f" stroke="#886e5f" stroke-width="1.51"/><path d="M511,1072L68,1055L684,1082Z" fill="#8f8c76" stroke="#8f8c76" stroke-width="1.51"/><path d="M1566,41L1541,-77L1522,26Z" fill="#674939" stroke="#674939" stroke-width="1.51"/><path d="M-101,487L-133,609L-47,487Z" fill="#c18891" stroke="#c18891" stroke-width="1.51"/><path d="M-117,770L-70,878L-44,829Z" fill="#775b3f" stroke="#775b3f" stroke-width="1.51"/><path d="M-101,487L-190,645L-133,609Z" fill="#b78580" stroke="#b78580" stroke-width="1.51"/><path d="M5,161L-96,203L-17,257Z" fill="#ba5085" stroke="#ba5085" stroke-width="1.51"/><path d="M-152,159L5,161L-84,-33Z" fill="#aa1569" stroke="#aa1569" stroke-width="1.51"/><path d="M-117,770L-44,829L-85,650Z" fill="#8a6b4a" stroke="#8a6b4a" stroke-width="1.51"/><path d="M-44,829L-70,878L62,894Z" fill="#6e513c" stroke="#6e513c" stroke-width="1.51"/><path d="M-96,203L-146,359L-42,325Z" fill="#c46d96" stroke="#c46d96" stroke-width="1.51"/><path d="M-190,645L-117,770L-85,650Z" fill="#9b7759" stroke="#9b7759" stroke-width="1.51"/><path d="M1443,1008L1623,1014L1614,911Z" fill="#276419" stroke="#276419" stroke-width="1.51"/><path d="M1614,911L1623,1014L1625,821Z" fill="#276419" stroke="#276419" stroke-width="1.51"/><path d="M1342,1046L1623,1014L1443,1008Z" fill="#276419" stroke="#276419" stroke-width="1.51"/><path d="M-133,609L-190,645L-85,650Z" fill="#aa806c" stroke="#aa806c" stroke-width="1.51"/><path d="M-178,992L-91,959L-70,878Z" fill="#674939" stroke="#674939" stroke-width="1.51"/><path d="M-146,359L-190,645L-101,487Z" fill="#c48897" stroke="#c48897" stroke-width="1.51"/><path d="M-70,878L-91,959L62,894Z" fill="#674939" stroke="#674939" stroke-width="1.51"/><path d="M-178,992L-70,878L-117,770Z" fill="#6b4e3a" stroke="#6b4e3a" stroke-width="1.51"/><path d="M-146,359L-152,159L-190,645Z" fill="#c9809e" stroke="#c9809e" stroke-width="1.51"/><path d="M-96,203L-152,159L-146,359Z" fill="#be5d8c" stroke="#be5d8c" stroke-width="1.51"/><path d="M-84,-33L5,161L57,15Z" fill="#9c075d" stroke="#9c075d" stroke-width="1.51"/><path d="M93,-97L-84,-33L57,15Z" fill="#920355" stroke="#920355" stroke-width="1.51"/><path d="M211,-167L27,-173L93,-97Z" fill="#a30b62" stroke="#a30b62" stroke-width="1.51"/><path d="M952,-168L27,-173L211,-167Z" fill="#bf5f8e" stroke="#bf5f8e" stroke-width="1.51"/><path d="M-91,959L-68,1031L62,894Z" fill="#674939" stroke="#674939" stroke-width="1.51"/><path d="M27,-173L-84,-33L93,-97Z" fill="#900253" stroke="#900253" stroke-width="1.51"/><path d="M27,-173L-99,-39L-84,-33Z" fill="#8e0152" stroke="#8e0152" stroke-width="1.51"/><path d="M-84,-33L-99,-39L-152,159Z" fill="#960559" stroke="#960559" stroke-width="1.51"/><path d="M-91,959L-178,992L-68,1031Z" fill="#674939" stroke="#674939" stroke-width="1.51"/><path d="M-190,645L-178,992L-117,770Z" fill="#7d6141" stroke="#7d6141" stroke-width="1.51"/><path d="M27,-173L-161,-171L-99,-39Z" fill="#8e0152" stroke="#8e0152" stroke-width="1.51"/><path d="M-99,-39L-161,-171L-152,159Z" fill="#8e0152" stroke="#8e0152" stroke-width="1.51"/><path d="M-152,159L-161,-171L-190,645Z" fill="#ba5285" stroke="#ba5285" stroke-width="1.51"/></svg>